<svg width="25" height="24" viewBox="0 0 25 24" fill="none" xmlns="http://www.w3.org/2000/svg">
<path fill-rule="evenodd" clip-rule="evenodd" d="M20.707 12H4.70703C3.60203 12 2.70703 12.8894 2.70703 13.9875V16.9022C2.70703 17.4507 3.15503 17.8959 3.70703 17.8959H21.707C22.259 17.8959 22.707 17.4507 22.707 16.9022V13.9875C22.707 12.8894 21.812 12 20.707 12Z" stroke="#607698" stroke-width="1.5" stroke-linecap="round" stroke-linejoin="round"/>
<path d="M4.70703 12V6.96468C4.70703 5.31804 6.05003 3.98343 7.70703 3.98343H17.707C19.364 3.98343 20.707 5.31804 20.707 6.96468V12" stroke="#607698" stroke-width="1.5" stroke-linecap="round" stroke-linejoin="round"/>
<path d="M21.707 17.9625V19.8805" stroke="#607698" stroke-width="1.5" stroke-linecap="round" stroke-linejoin="round"/>
<path d="M3.70703 17.9625V19.8805" stroke="#607698" stroke-width="1.5" stroke-linecap="round" stroke-linejoin="round"/>
<path d="M8.20703 12V12C8.20703 10.3534 9.55003 9.01877 11.207 9.01877H14.207C15.864 9.01877 17.207 10.3534 17.207 12V12" stroke="#607698" stroke-width="1.5" stroke-linecap="round" stroke-linejoin="round"/>
</svg>
