<svg width="32" height="32" viewBox="0 0 32 32" fill="none" xmlns="http://www.w3.org/2000/svg">
<path d="M5.98533 17.9999C5.37733 18.8052 4.42133 19.3332 3.33333 19.3332C1.492 19.3332 0 17.8412 0 15.9999C0 14.1586 1.492 12.6666 3.33333 12.6666C4.42 12.6666 5.376 13.1946 5.98533 13.9999H9.67333C9.472 14.6346 9.33467 15.2986 9.33467 15.9999C9.33467 16.7012 9.47333 17.3652 9.67333 17.9999H5.98533ZM28.6667 12.6666C27.58 12.6666 26.624 13.1946 26.0147 13.9999H22.3267C22.528 14.6346 22.6653 15.2986 22.6653 15.9999C22.6653 16.7012 22.5267 17.3652 22.3267 17.9999H26.0147C26.6227 18.8052 27.5787 19.3332 28.6667 19.3332C30.508 19.3332 32 17.8412 32 15.9999C32 14.1586 30.508 12.6666 28.6667 12.6666ZM22.944 23.4892L21.016 20.3479C20.1187 21.3799 18.9333 22.1079 17.608 22.4399L19.536 25.5812C19.168 26.5212 19.2187 27.6119 19.7867 28.5386C20.7493 30.1079 22.8027 30.5986 24.3707 29.6359C25.9387 28.6732 26.4307 26.6199 25.468 25.0519C24.8987 24.1252 23.9493 23.5866 22.944 23.4892ZM9.056 8.51057L10.984 11.6519C11.8813 10.6199 13.0667 9.8919 14.392 9.5599L12.464 6.41857C12.832 5.47857 12.7813 4.3879 12.2133 3.46123C11.2507 1.8919 9.19733 1.40123 7.62933 2.3639C6.06 3.32657 5.56933 5.3799 6.532 6.9479C7.10133 7.87457 8.05067 8.41323 9.056 8.51057ZM21.0267 11.6652L22.964 8.52923C23.9693 8.43457 24.9213 7.89857 25.492 6.97457C26.46 5.4079 25.9747 3.35457 24.408 2.38657C22.8413 1.41857 20.788 1.9039 19.82 3.47057C19.2493 4.3959 19.196 5.48657 19.5613 6.4279L17.624 9.5639C18.9493 9.8999 20.1333 10.6319 21.0267 11.6652ZM10.972 20.3332L9.03467 23.4692C8.02933 23.5639 7.07733 24.0999 6.50667 25.0239C5.53867 26.5906 6.024 28.6439 7.59067 29.6119C9.15733 30.5799 11.2107 30.0946 12.1787 28.5279C12.7493 27.6026 12.8027 26.5119 12.4373 25.5706L14.3747 22.4346C13.0493 22.0986 11.8653 21.3666 10.972 20.3332ZM20 15.9999C20 13.7906 18.2093 11.9999 16 11.9999C13.7907 11.9999 12 13.7906 12 15.9999C12 18.2092 13.7907 19.9999 16 19.9999C18.2093 19.9999 20 18.2092 20 15.9999Z" fill="#192E51"/>
</svg>
