<svg width="32" height="32" viewBox="0 0 32 32" fill="none" xmlns="http://www.w3.org/2000/svg">
<path d="M4.7707 27.8693C4.80536 27.4 4.8587 26.8 4.92003 26.104C5.15603 23.408 5.50536 19.412 5.50536 16C5.50536 13.2707 5.36136 10.1533 5.21336 7.65332C3.60536 8.00132 2.61336 8.44665 2.5467 8.47732C2.1267 8.67199 1.83603 9.07065 1.78136 9.53065C1.7627 9.68532 1.33203 13.364 1.33203 18.2853C1.33203 20.82 1.4027 22.8507 1.54936 24.492C1.70536 26.2373 3.19736 27.4333 4.7747 28.22C4.77336 28.1027 4.76003 27.988 4.76936 27.8693H4.7707Z" fill="#192E51"/>
<path d="M29.2787 3.85592C29.1627 3.41859 28.8307 3.07059 28.3987 2.93059C28.1961 2.86525 23.3681 1.33325 17.6614 1.33325C14.4587 1.33325 10.8294 1.83325 8.65472 2.32925C8.01072 2.47592 7.57206 3.07192 7.62139 3.73059C7.78806 5.91325 8.17339 11.4759 8.17339 16.0013C8.17339 19.5293 7.81739 23.5959 7.58139 26.2866C7.52006 26.9919 7.46672 27.5999 7.43072 28.0733C7.38006 28.7319 7.82006 29.3266 8.46406 29.4746C10.0374 29.8333 14.0841 30.6679 17.6627 30.6679C23.3574 30.6679 28.1961 29.1359 28.4001 29.0706C28.8334 28.9319 29.1654 28.5813 29.2814 28.1426C29.3374 27.9279 30.6681 22.8199 30.6681 16.0026C30.6681 9.12659 29.3361 4.07059 29.2801 3.85859L29.2787 3.85592ZM13.6041 9.05459C13.7414 8.68925 14.0334 8.40125 14.4014 8.26925C14.4787 8.24125 15.1774 7.99992 16.0014 7.99992C16.8121 7.99992 17.4761 8.22659 17.6001 8.27192C17.9587 8.40259 18.2441 8.67992 18.3841 9.03592C18.4321 9.15592 18.6681 9.79859 18.6681 10.6666C18.6681 11.5239 18.4361 12.1733 18.3894 12.2946C18.2494 12.6613 17.9534 12.9466 17.5841 13.0759C17.5081 13.1026 16.8201 13.3333 16.0027 13.3333C15.1854 13.3333 14.4947 13.1026 14.4187 13.0773C14.0427 12.9479 13.7454 12.6573 13.6054 12.2853C13.5601 12.1653 13.3361 11.5239 13.3361 10.6679C13.3361 9.81192 13.5601 9.17592 13.6067 9.05592L13.6041 9.05459ZM24.0001 23.9999H14.6667C13.9307 23.9999 13.3334 23.4026 13.3334 22.6666C13.3334 21.9306 13.9307 21.3333 14.6667 21.3333H24.0001C24.7361 21.3333 25.3334 21.9306 25.3334 22.6666C25.3334 23.4026 24.7361 23.9999 24.0001 23.9999ZM24.0001 18.6666H14.6667C13.9307 18.6666 13.3334 18.0693 13.3334 17.3333C13.3334 16.5973 13.9307 15.9999 14.6667 15.9999H24.0001C24.7361 15.9999 25.3334 16.5973 25.3334 17.3333C25.3334 18.0693 24.7361 18.6666 24.0001 18.6666ZM24.0001 13.3333H21.3334C20.5974 13.3333 20.0001 12.7359 20.0001 11.9999C20.0001 11.2639 20.5974 10.6666 21.3334 10.6666H24.0001C24.7361 10.6666 25.3334 11.2639 25.3334 11.9999C25.3334 12.7359 24.7361 13.3333 24.0001 13.3333Z" fill="#192E51"/>
</svg>
