<svg width="32" height="32" viewBox="0 0 32 32" fill="none" xmlns="http://www.w3.org/2000/svg">
<g clip-path="url(#clip0_1122_2768)">
<path fill-rule="evenodd" clip-rule="evenodd" d="M4.08802 19.3672H6.5065V19.7035H20.259V20.1679H18.2622V22.0385V27.0812V29.9569C18.2622 30.9856 19.1744 31.8277 20.2896 31.8277H28.9377H30.2532C31.214 31.8277 32 31.1023 32 30.2158L31.9834 29.0874V22.0385C31.9834 21.0096 31.071 20.1679 29.9564 20.1679H28.239V13.6622H30.1267C31.1555 13.6622 31.9974 12.8203 31.9974 11.7915V4.74248V3.87303V2.70723C31.9974 2.31964 31.6803 2.00244 31.2926 2.00244H30.1267H29.7471H21.207C20.1782 2.00244 19.3367 2.84453 19.3367 3.87303V6.74867V6.86343H6.50665V11.6598H4.28367V2.55832H0.639796V9.98669C0.639796 12.7583 1.53638 13.31 2.50624 13.31H4.0881V19.3671L4.08802 19.3672ZM0.80261 21.211H15.0737V28.9863C15.0737 31.8575 13.4253 31.8819 10.5192 31.8819H7.00552C3.76787 31.8819 0.802684 32.3814 0.802684 29.1164V21.2109L0.80261 21.211ZM0 2.54752V2.11379H2.57626V2.54752H0Z" fill="#2B2A29"/>
<path fill-rule="evenodd" clip-rule="evenodd" d="M4.46256 0H4.84216H13.3821C14.4111 0 15.2529 0.842094 15.2529 1.87059V4.74623V9.78896V11.6598H13.3821H10.0744H4.46248C3.43377 11.6598 2.59167 10.8178 2.59167 9.78896V2.74004V1.87059V0.704789C2.59167 0.317125 2.90887 0 3.29669 0H4.46248L4.46256 0Z" fill="#FFED00"/>
<path fill-rule="evenodd" clip-rule="evenodd" d="M28.42 0H20.4403C19.4114 0 18.5693 0.842094 18.5693 1.87059V4.74623V9.78896V11.6598H20.4403H23.7477H29.3596C30.3882 11.6598 31.2303 10.8178 31.2303 9.78896V2.74004L31.2455 1.61165C31.2455 0.725196 30.5204 0 29.6337 0L28.42 0Z" fill="#F7A707"/>
<path fill-rule="evenodd" clip-rule="evenodd" d="M28.3908 0C25.7389 0 23.0867 0 20.4347 0C19.4087 0 18.5693 0.839506 18.5693 1.86512C18.5693 2.82085 18.5693 3.77652 18.5693 4.73226C18.5693 6.40824 18.5693 8.08414 18.5693 9.76012C18.5693 10.3818 18.5693 11.0036 18.5693 11.6252C19.1912 11.6252 19.8131 11.6252 20.4347 11.6252C21.5339 11.6252 22.6331 11.6252 23.7324 11.6252C25.5976 11.6252 27.4629 11.6252 29.3279 11.6252C30.3536 11.6252 31.193 10.7859 31.193 9.76012C31.193 7.41751 31.193 5.07467 31.193 2.73205C31.1982 2.35703 31.203 1.98187 31.2082 1.60699C31.2082 0.723051 30.4849 7.39392e-05 29.6011 7.39392e-05C29.1978 7.39392e-05 28.7942 7.39392e-05 28.3908 7.39392e-05V0Z" fill="#F8AB04"/>
<path fill-rule="evenodd" clip-rule="evenodd" d="M28.3616 0C25.7174 0 23.0733 0 20.4293 0C19.4064 0 18.5693 0.836992 18.5693 1.8595C18.5693 2.81243 18.5693 3.76543 18.5693 4.71821C18.5693 6.38931 18.5693 8.06011 18.5693 9.73114C18.5693 10.351 18.5693 10.9709 18.5693 11.5906C19.1895 11.5906 19.8092 11.5906 20.4293 11.5906C21.5251 11.5906 22.6212 11.5906 23.7171 11.5906C25.5768 11.5906 27.4366 11.5906 29.2959 11.5906C30.3188 11.5906 31.1556 10.7539 31.1556 9.73114C31.1556 7.39547 31.1556 5.05959 31.1556 2.72385C31.1608 2.35008 31.1655 1.97603 31.1708 1.60204C31.1708 0.720981 30.4497 0 29.5685 0C29.166 0 28.7641 0 28.3615 0L28.3616 0Z" fill="#F8AF02"/>
<path fill-rule="evenodd" clip-rule="evenodd" d="M28.3326 0C25.6963 0 23.0599 0 20.4237 0C19.4037 0 18.5693 0.834626 18.5693 1.85403C18.5693 2.80414 18.5693 3.75419 18.5693 4.70431C18.5693 6.37023 18.5693 8.03623 18.5693 9.70216C18.5693 10.3201 18.5693 10.9382 18.5693 11.5563C19.1875 11.5563 19.8057 11.5563 20.4237 11.5563C21.5164 11.5563 22.6089 11.5563 23.7018 11.5563C25.5559 11.5563 27.41 11.5563 29.2641 11.5563C30.2837 11.5563 31.1182 10.722 31.1182 9.70216C31.1182 7.37337 31.1182 5.04472 31.1182 2.71593C31.123 2.34299 31.1281 1.97026 31.1334 1.59738C31.1334 0.718837 30.4144 7.39392e-05 29.5359 7.39392e-05C29.1348 7.39392e-05 28.7335 7.39392e-05 28.3326 7.39392e-05V0Z" fill="#F9B101"/>
<path fill-rule="evenodd" clip-rule="evenodd" d="M28.3033 0C25.6751 0 23.0465 0 20.4182 0C19.4014 0 18.5693 0.832038 18.5693 1.84848C18.5693 2.79579 18.5693 3.74302 18.5693 4.69041C18.5693 6.35123 18.5693 8.01235 18.5693 9.67339C18.5693 10.2896 18.5693 10.9058 18.5693 11.5219C19.1855 11.5219 19.8018 11.5219 20.4182 11.5219C21.5077 11.5219 22.597 11.5219 23.6867 11.5219C25.5352 11.5219 27.3838 11.5219 29.2322 11.5219C30.2487 11.5219 31.081 10.6901 31.081 9.67339C31.081 7.35163 31.081 5.02971 31.081 2.70788C31.0857 2.33618 31.0908 1.96434 31.0958 1.59272C31.0958 0.716693 30.3792 7.39392e-05 29.5031 7.39392e-05C29.1035 7.39392e-05 28.7035 7.39392e-05 28.3034 7.39392e-05L28.3033 0Z" fill="#F9B500"/>
<path fill-rule="evenodd" clip-rule="evenodd" d="M28.2744 7.39392e-05C25.6536 7.39392e-05 23.033 7.39392e-05 20.4126 7.39392e-05C19.399 7.39392e-05 18.5693 0.829598 18.5693 1.84301C18.5693 2.78751 18.5693 3.73193 18.5693 4.67621C18.5693 6.33238 18.5693 7.98839 18.5693 9.64448C18.5693 10.2586 18.5693 10.8731 18.5693 11.4874C19.184 11.4874 19.7981 11.4874 20.4126 11.4874C21.4987 11.4874 22.585 11.4874 23.6712 11.4874C25.5142 11.4874 27.3574 11.4874 29.2003 11.4874C30.2136 11.4874 31.0435 10.6581 31.0435 9.64448C31.0435 7.32945 31.0435 5.01463 31.0435 2.69952C31.0483 2.32901 31.0535 1.95843 31.0582 1.58792C31.0582 0.714401 30.3438 0 29.4703 0C29.0716 0 28.673 0 28.2744 0V7.39392e-05Z" fill="#FAB800"/>
<path fill-rule="evenodd" clip-rule="evenodd" d="M28.2452 0C25.6326 0 23.0196 0 20.407 0C19.3963 0 18.5693 0.827158 18.5693 1.83754C18.5693 2.77915 18.5693 3.72069 18.5693 4.66216C18.5693 6.3133 18.5693 7.96451 18.5693 9.61557C18.5693 10.228 18.5693 10.8406 18.5693 11.453C19.1821 11.453 19.7947 11.453 20.407 11.453C21.4901 11.453 22.5728 11.453 23.656 11.453C25.4934 11.453 27.3311 11.453 29.1684 11.453C30.1788 11.453 31.0061 10.6262 31.0061 9.61557C31.0061 7.30748 31.0061 4.99947 31.0061 2.69161C31.0109 2.32213 31.016 1.95266 31.0208 1.58319C31.0208 0.712478 30.3085 7.39392e-05 29.4378 7.39392e-05C29.0404 7.39392e-05 28.6426 7.39392e-05 28.2452 7.39392e-05V0Z" fill="#FBBD00"/>
<path fill-rule="evenodd" clip-rule="evenodd" d="M28.2162 7.39392e-05C25.6112 7.39392e-05 23.0064 7.39392e-05 20.4016 7.39392e-05C19.394 7.39392e-05 18.5693 0.824718 18.5693 1.83192C18.5693 2.7708 18.5693 3.70938 18.5693 4.64819C18.5693 6.29437 18.5693 7.94041 18.5693 9.58651C18.5693 10.1973 18.5693 10.8078 18.5693 11.4186C19.1801 11.4186 19.7907 11.4186 20.4016 11.4186C21.4812 11.4186 22.5609 11.4186 23.6408 11.4186C25.4725 11.4186 27.3047 11.4186 29.1365 11.4186C30.1441 11.4186 30.9688 10.5942 30.9688 9.58651C30.9688 7.28553 30.9688 4.98446 30.9688 2.6834C30.9735 2.31496 30.9786 1.94667 30.9833 1.57823C30.9833 0.71026 30.273 0 29.4052 0C29.0089 0 28.6126 0 28.2162 0V7.39392e-05Z" fill="#FCC000"/>
<path fill-rule="evenodd" clip-rule="evenodd" d="M28.1869 0C25.5899 0 22.9931 0 20.3959 0C19.3914 0 18.5693 0.82213 18.5693 1.82645C18.5693 2.76237 18.5693 3.69829 18.5693 4.63429C18.5693 6.27529 18.5693 7.9166 18.5693 9.55768C18.5693 10.1664 18.5693 10.7754 18.5693 11.3841C19.1784 11.3841 19.787 11.3841 20.3959 11.3841C21.4724 11.3841 22.5489 11.3841 23.6254 11.3841C25.4517 11.3841 27.2783 11.3841 29.1046 11.3841C30.109 11.3841 30.9312 10.5622 30.9312 9.55768C30.9312 7.26349 30.9312 4.96938 30.9312 2.67542C30.936 2.30816 30.941 1.94083 30.9457 1.57357C30.9457 0.708116 30.2376 7.39392e-05 29.3723 7.39392e-05C28.977 7.39392e-05 28.5818 7.39392e-05 28.1868 7.39392e-05L28.1869 0Z" fill="#FDC400"/>
<path fill-rule="evenodd" clip-rule="evenodd" d="M28.1581 0C25.5689 0 22.9797 0 20.3905 0C19.389 0 18.5693 0.81969 18.5693 1.82083C18.5693 2.75409 18.5693 3.68705 18.5693 4.62009C18.5693 6.25629 18.5693 7.89264 18.5693 9.52884C18.5693 10.1358 18.5693 10.7427 18.5693 11.3497C19.1765 11.3497 19.7836 11.3497 20.3905 11.3497C21.4638 11.3497 22.5367 11.3497 23.6101 11.3497C25.4309 11.3497 27.2519 11.3497 29.0728 11.3497C30.0741 11.3497 30.894 10.5303 30.894 9.52884C30.894 7.24153 30.894 4.95444 30.894 2.66728C30.8987 2.30106 30.9037 1.93506 30.9085 1.56884C30.9085 0.705898 30.2026 0 29.3395 0C28.9456 0 28.5518 0 28.1581 0Z" fill="#FDC500"/>
<path fill-rule="evenodd" clip-rule="evenodd" d="M28.1286 0C25.5475 0 22.9661 0 20.3848 0C19.3864 0 18.5693 0.817176 18.5693 1.81536C18.5693 2.74566 18.5693 3.67581 18.5693 4.60604C18.5693 6.23729 18.5693 7.86861 18.5693 9.49971C18.5693 10.1048 18.5693 10.71 18.5693 11.3151C19.1745 11.3151 19.7796 11.3151 20.3848 11.3151C21.4549 11.3151 22.5248 11.3151 23.5948 11.3151C25.41 11.3151 27.2256 11.3151 29.041 11.3151C30.0392 11.3151 30.8566 10.4983 30.8566 9.49971C30.8566 7.21957 30.8566 4.93944 30.8566 2.6593C30.8614 2.29411 30.8664 1.929 30.8713 1.56411C30.8713 0.703901 30.1674 0 29.307 0C28.9145 0 28.5216 0 28.1287 0L28.1286 0Z" fill="#FEC900"/>
<path fill-rule="evenodd" clip-rule="evenodd" d="M28.0998 0H20.3793C19.384 0 18.5693 0.814588 18.5693 1.80974V4.59207V9.47087V11.2808H20.3793H23.5794H29.009C30.0041 11.2808 30.8191 10.4663 30.8191 9.47087V2.65109L30.8336 1.55923C30.8336 0.701683 30.1319 0 29.2744 0H28.0997L28.0998 0Z" fill="#FECC00"/>
<path fill-rule="evenodd" clip-rule="evenodd" d="M28.3974 30.9918H20.4175C19.3888 30.9918 18.5471 30.1497 18.5471 29.121V26.2453V21.2026V19.332H20.4175H23.7252H29.3374C30.366 19.332 31.2081 20.1737 31.2081 21.2026V28.2515L31.223 29.3801C31.223 30.2665 30.4978 30.9918 29.6115 30.9918H28.3974H28.3974Z" fill="#3F6DB3"/>
<path fill-rule="evenodd" clip-rule="evenodd" d="M28.3637 30.9518C25.7129 30.9518 23.0622 30.9518 20.4111 30.9518C19.386 30.9518 18.5471 30.1127 18.5471 29.0876C18.5471 28.1323 18.5471 27.1769 18.5471 26.2218C18.5471 24.5465 18.5471 22.8715 18.5471 21.1963C18.5471 20.5748 18.5471 19.9533 18.5471 19.332C19.1686 19.332 19.79 19.332 20.4111 19.332C21.5099 19.332 22.6088 19.332 23.7076 19.332C25.5716 19.332 27.4359 19.332 29.3002 19.332C30.3255 19.332 31.1645 20.1709 31.1645 21.1963C31.1645 23.5378 31.1645 25.8795 31.1645 28.221C31.1698 28.5959 31.1745 28.9708 31.1797 29.3455C31.1797 30.229 30.4569 30.9517 29.5733 30.9517C29.1703 30.9517 28.7671 30.9517 28.3636 30.9517L28.3637 30.9518Z" fill="#3573B8"/>
<path fill-rule="evenodd" clip-rule="evenodd" d="M28.33 30.9119C25.6884 30.9119 23.0466 30.9119 20.405 30.9119C19.3829 30.9119 18.5471 30.0756 18.5471 29.054C18.5471 28.102 18.5471 27.15 18.5471 26.1981C18.5471 24.5287 18.5471 22.8593 18.5471 21.1899C18.5471 20.5707 18.5471 19.9513 18.5471 19.332C19.1664 19.332 19.7857 19.332 20.405 19.332C21.5 19.332 22.5947 19.332 23.6897 19.332C25.5475 19.332 27.4056 19.332 29.2636 19.332C30.2849 19.332 31.1214 20.1681 31.1214 21.1899C31.1214 23.5235 31.1214 25.8569 31.1214 28.1905C31.1262 28.5642 31.1314 28.9376 31.1362 29.3113C31.1362 30.1916 30.4159 30.9119 29.5357 30.9119C29.1338 30.9119 28.7319 30.9119 28.3299 30.9119H28.33Z" fill="#2078BD"/>
<path fill-rule="evenodd" clip-rule="evenodd" d="M28.2962 30.8721C25.6634 30.8721 23.0309 30.8721 20.3985 30.8721C19.38 30.8721 18.547 30.0386 18.547 29.0206C18.547 28.0718 18.547 27.1232 18.547 26.1743C18.547 24.5107 18.547 22.8472 18.547 21.1833C18.547 20.5662 18.547 19.9491 18.547 19.332C19.1641 19.332 19.7812 19.332 20.3985 19.332C21.4896 19.332 22.5806 19.332 23.6719 19.332C25.5236 19.332 27.375 19.332 29.2263 19.332C30.2445 19.332 31.0778 20.1652 31.0778 21.1833C31.0778 23.5089 31.0778 25.8345 31.0778 28.16C31.0832 28.5324 31.0878 28.9045 31.0929 29.2769C31.0929 30.1542 30.3751 30.8721 29.4978 30.8721C29.0972 30.8721 28.6968 30.8721 28.2963 30.8721H28.2962Z" fill="#087CC0"/>
<path fill-rule="evenodd" clip-rule="evenodd" d="M28.2625 30.8322C25.6391 30.8322 23.0155 30.8322 20.3921 30.8322C19.3774 30.8322 18.5471 30.0017 18.5471 28.9872C18.5471 28.0416 18.5471 27.0963 18.5471 26.1507C18.5471 24.4928 18.5471 22.835 18.5471 21.177C18.5471 20.5621 18.5471 19.947 18.5471 19.332C19.1622 19.332 19.7772 19.332 20.3921 19.332C21.4794 19.332 22.5671 19.332 23.6542 19.332C25.4995 19.332 27.3446 19.332 29.1895 19.332C30.204 19.332 31.0348 20.1623 31.0348 21.177C31.0348 23.4946 31.0348 25.8119 31.0348 28.1295C31.0395 28.5005 31.0446 28.8715 31.0497 29.2427C31.0497 30.1169 30.3342 30.8322 29.46 30.8322C29.0608 30.8322 28.6617 30.8322 28.2625 30.8322Z" fill="#0080C4"/>
<path fill-rule="evenodd" clip-rule="evenodd" d="M28.2287 30.7922C25.6143 30.7922 22.9998 30.7922 20.3854 30.7922C19.3742 30.7922 18.547 29.9647 18.547 28.9536C18.547 28.0115 18.547 27.0692 18.547 26.1271C18.547 24.475 18.547 22.8228 18.547 21.1707C18.547 20.5577 18.547 19.9449 18.547 19.332C19.1599 19.332 19.7727 19.332 20.3854 19.332C21.4691 19.332 22.5528 19.332 23.6365 19.332C25.4753 19.332 27.3138 19.332 29.1528 19.332C30.1637 19.332 30.9912 20.1594 30.9912 21.1707C30.9912 23.48 30.9912 25.7896 30.9912 28.099C30.9963 28.4686 31.0013 28.8385 31.0063 29.2081C31.0063 30.0794 30.2935 30.7922 29.422 30.7922C29.0244 30.7922 28.6266 30.7922 28.2287 30.7922Z" fill="#0084C8"/>
<path fill-rule="evenodd" clip-rule="evenodd" d="M28.1954 30.7525C25.59 30.7525 22.9845 30.7525 20.3792 30.7525C19.3713 30.7525 18.5471 29.9277 18.5471 28.9202C18.5471 27.9812 18.5471 27.0424 18.5471 26.1035C18.5471 24.457 18.5471 22.8106 18.5471 21.1643C18.5471 20.5535 18.5471 19.9428 18.5471 19.332C19.1579 19.332 19.7684 19.332 20.3792 19.332C21.4592 19.332 22.5389 19.332 23.6191 19.332C25.4513 19.332 27.2834 19.332 29.1156 19.332C30.1234 19.332 30.9481 20.1565 30.9481 21.1643C30.9481 23.4657 30.9481 25.7671 30.9481 28.0685C30.9531 28.4369 30.9578 28.8054 30.9627 29.1739C30.9627 30.0421 30.2527 30.7525 29.3842 30.7525C28.9879 30.7525 28.5916 30.7525 28.1952 30.7525L28.1954 30.7525Z" fill="#0087CB"/>
<path fill-rule="evenodd" clip-rule="evenodd" d="M28.1613 30.7125C25.565 30.7125 22.969 30.7125 20.3729 30.7125C19.3688 30.7125 18.547 29.8906 18.547 28.8866C18.547 27.951 18.547 27.0155 18.547 26.0798C18.547 24.4392 18.547 22.7985 18.547 21.158C18.547 20.5492 18.547 19.9406 18.547 19.332C19.1555 19.332 19.7641 19.332 20.3729 19.332C21.449 19.332 22.5251 19.332 23.6013 19.332C25.427 19.332 27.253 19.332 29.0789 19.332C30.0827 19.332 30.9048 20.1536 30.9048 21.158C30.9048 23.4512 30.9048 25.7446 30.9048 28.038C30.9096 28.4051 30.9144 28.7721 30.9195 29.1395C30.9195 30.0046 30.2114 30.7125 29.3463 30.7125C28.9514 30.7125 28.5565 30.7125 28.1613 30.7125Z" fill="#008BCF"/>
<path fill-rule="evenodd" clip-rule="evenodd" d="M28.1278 30.6725C25.5407 30.6725 22.9537 30.6725 20.3667 30.6725C19.3658 30.6725 18.5471 29.8535 18.5471 28.8532C18.5471 27.9209 18.5471 26.9884 18.5471 26.0561C18.5471 24.4212 18.5471 22.7862 18.5471 21.1515C18.5471 20.5451 18.5471 19.9385 18.5471 19.332C19.1535 19.332 19.7599 19.332 20.3667 19.332C21.4388 19.332 22.5112 19.332 23.5837 19.332C25.4033 19.332 27.2226 19.332 29.042 19.332C30.0425 19.332 30.8614 20.1507 30.8614 21.1515C30.8614 23.4369 30.8614 25.7221 30.8614 28.0075C30.8666 28.3734 30.8714 28.7392 30.8765 29.105C30.8765 29.9672 30.1707 30.6726 29.3087 30.6726C28.915 30.6726 28.5215 30.6726 28.1279 30.6726L28.1278 30.6725Z" fill="#008ED2"/>
<path fill-rule="evenodd" clip-rule="evenodd" d="M28.0942 30.6329C25.5161 30.6329 22.9382 30.6329 20.3601 30.6329C19.363 30.6329 18.5471 29.8168 18.5471 28.8198C18.5471 27.8906 18.5471 26.9616 18.5471 26.0325C18.5471 24.4034 18.5471 22.7742 18.5471 21.1451C18.5471 20.5407 18.5471 19.9363 18.5471 19.332C19.1514 19.332 19.7555 19.332 20.3601 19.332C21.4286 19.332 22.4972 19.332 23.566 19.332C25.3791 19.332 27.1919 19.332 29.0051 19.332C30.0021 19.332 30.8183 20.148 30.8183 21.1451C30.8183 23.4223 30.8183 25.6997 30.8183 27.977C30.823 28.3416 30.8281 28.7061 30.8328 29.0707C30.8328 29.9298 30.13 30.6328 29.2707 30.6328C28.8785 30.6328 28.4864 30.6328 28.0942 30.6328V30.6329Z" fill="#0092D6"/>
<path fill-rule="evenodd" clip-rule="evenodd" d="M28.0603 30.5929C25.4914 30.5929 22.9226 30.5929 20.3537 30.5929C19.3599 30.5929 18.547 29.7797 18.547 28.7862C18.547 27.8605 18.547 26.9347 18.547 26.009C18.547 24.3855 18.547 22.762 18.547 21.1387C18.547 20.5365 18.547 19.9343 18.547 19.332C19.149 19.332 19.7515 19.332 20.3537 19.332C21.4185 19.332 22.4833 19.332 23.5479 19.332C25.3548 19.332 27.1613 19.332 28.9681 19.332C29.9616 19.332 30.7746 20.1451 30.7746 21.1387C30.7746 23.408 30.7746 25.6773 30.7746 27.9465C30.7796 28.3099 30.7845 28.6731 30.7895 29.0364C30.7895 29.8925 30.0891 30.5929 29.233 30.5929C28.8421 30.5929 28.4512 30.5929 28.0603 30.5929Z" fill="#0094D8"/>
<path fill-rule="evenodd" clip-rule="evenodd" d="M28.0266 30.553H20.3471C19.3569 30.553 18.547 29.7425 18.547 28.7527V25.9851V21.1323V19.332H20.3471H23.5302H28.9311C29.9213 19.332 30.7316 20.1421 30.7316 21.1323V27.916L30.7459 29.0019C30.7459 29.855 30.048 30.5531 29.1949 30.5531H28.0266V30.553Z" fill="#0097DB"/>
<path fill-rule="evenodd" clip-rule="evenodd" d="M4.659 30.9121H13.1925C14.2928 30.9121 15.193 30.0783 15.193 29.0598V26.2125V21.2195V19.3672H13.1925H9.65522H3.65409C2.55403 19.3672 1.65367 20.2008 1.65367 21.2195V28.1991L1.63733 29.3164C1.63733 30.194 2.41273 30.9121 3.361 30.9121H4.65893H4.659Z" fill="#EF7F1A"/>
<path fill-rule="evenodd" clip-rule="evenodd" d="M4.69526 30.8726C7.53009 30.8726 10.3649 30.8726 13.1994 30.8726C14.296 30.8726 15.1931 30.0416 15.1931 29.0267C15.1931 28.0808 15.1931 27.1349 15.1931 26.189C15.1931 24.5305 15.1931 22.8718 15.1931 21.2131C15.1931 20.5978 15.1931 19.9825 15.1931 19.3672C14.5285 19.3672 13.8639 19.3672 13.1994 19.3672C12.0243 19.3672 10.8495 19.3672 9.67462 19.3672C7.68078 19.3672 5.68708 19.3672 3.69375 19.3672C2.59738 19.3672 1.70006 20.1978 1.70006 21.2131C1.70006 23.5317 1.70006 25.8502 1.70006 28.1687C1.69451 28.5399 1.68919 28.911 1.68372 29.2821C1.68372 30.1568 2.4566 30.8726 3.40162 30.8726C3.83261 30.8726 4.26382 30.8726 4.69519 30.8726H4.69526Z" fill="#F0811D"/>
<path fill-rule="evenodd" clip-rule="evenodd" d="M4.73125 30.8329C7.55632 30.8329 10.3813 30.8329 13.2062 30.8329C14.2989 30.8329 15.1931 30.005 15.1931 28.9934C15.1931 28.0508 15.1931 27.1082 15.1931 26.1655C15.1931 24.5126 15.1931 22.8597 15.1931 21.2067C15.1931 20.5936 15.1931 19.9804 15.1931 19.3672C14.5308 19.3672 13.8684 19.3672 13.2062 19.3672C12.0353 19.3672 10.8644 19.3672 9.69323 19.3672C7.70663 19.3672 5.71967 19.3672 3.73314 19.3672C2.64069 19.3672 1.74617 20.1952 1.74617 21.2067C1.74617 23.5174 1.74617 25.8278 1.74617 28.1385C1.74085 28.5084 1.73545 28.8784 1.72998 29.2482C1.72998 30.1199 2.50035 30.833 3.44167 30.833C3.87178 30.833 4.30136 30.833 4.73125 30.833V30.8329Z" fill="#F08421"/>
<path fill-rule="evenodd" clip-rule="evenodd" d="M4.7675 30.7936C7.58274 30.7936 10.3979 30.7936 13.2131 30.7936C14.302 30.7936 15.1932 29.9684 15.1932 28.9604C15.1932 28.0211 15.1932 27.0817 15.1932 26.1423C15.1932 24.4949 15.1932 22.8478 15.1932 21.2004C15.1932 20.5895 15.1932 19.9784 15.1932 19.3672C14.533 19.3672 13.873 19.3672 13.2131 19.3672C12.0462 19.3672 10.8792 19.3672 9.71218 19.3672C7.73231 19.3672 5.75259 19.3672 3.77257 19.3672C2.68375 19.3672 1.79248 20.1922 1.79248 21.2004C1.79248 23.5031 1.79248 25.8057 1.79248 28.1082C1.78738 28.4769 1.78191 28.8455 1.77673 29.2143C1.77673 30.0828 2.5443 30.7936 3.48229 30.7936C3.91062 30.7936 4.33917 30.7936 4.7675 30.7936Z" fill="#F08424"/>
<path fill-rule="evenodd" clip-rule="evenodd" d="M4.80319 30.754C7.60904 30.754 10.4144 30.754 13.22 30.754C14.305 30.754 15.1931 29.9318 15.1931 28.9272C15.1931 27.9912 15.1931 27.055 15.1931 26.1189C15.1931 24.4773 15.1931 22.8356 15.1931 21.1942C15.1931 20.5851 15.1931 19.9762 15.1931 19.3672C14.5354 19.3672 13.8778 19.3672 13.22 19.3672C12.0571 19.3672 10.8942 19.3672 9.73139 19.3672C7.75825 19.3672 5.78488 19.3672 3.81211 19.3672C2.72698 19.3672 1.83875 20.1893 1.83875 21.1942C1.83875 23.4887 1.83875 25.7834 1.83875 28.0781C1.83372 28.4454 1.8284 28.8129 1.823 29.1802C1.823 30.0459 2.5879 30.7541 3.52271 30.7541C3.94971 30.7541 4.37656 30.7541 4.80319 30.7541V30.754Z" fill="#F08626"/>
<path fill-rule="evenodd" clip-rule="evenodd" d="M4.83935 30.7147C7.63536 30.7147 10.4311 30.7147 13.2267 30.7147C14.3081 30.7147 15.1931 29.8951 15.1931 28.894C15.1931 27.9612 15.1931 27.0283 15.1931 26.0955C15.1931 24.4595 15.1931 22.8237 15.1931 21.1879C15.1931 20.5809 15.1931 19.9742 15.1931 19.3672C14.5375 19.3672 13.8821 19.3672 13.2267 19.3672C12.068 19.3672 10.909 19.3672 9.75032 19.3672C7.78383 19.3672 5.81764 19.3672 3.85138 19.3672C2.77039 19.3672 1.88533 20.1866 1.88533 21.1879C1.88533 23.4746 1.88533 25.7613 1.88533 28.048C1.88008 28.414 1.87469 28.78 1.86914 29.1462C1.86914 30.0088 2.63153 30.7147 3.56331 30.7147C3.98868 30.7147 4.41428 30.7147 4.83943 30.7147H4.83935Z" fill="#F1882A"/>
<path fill-rule="evenodd" clip-rule="evenodd" d="M4.87524 30.6751C7.66127 30.6751 10.4476 30.6751 13.2333 30.6751C14.3113 30.6751 15.193 29.8584 15.193 28.861C15.193 27.9312 15.193 27.0016 15.193 26.0721C15.193 24.4419 15.193 22.8117 15.193 21.1815C15.193 20.5768 15.193 19.972 15.193 19.3672C14.5396 19.3672 13.8866 19.3672 13.2333 19.3672C12.0788 19.3672 10.924 19.3672 9.76891 19.3672C7.80974 19.3672 5.85035 19.3672 3.89067 19.3672C2.81337 19.3672 1.9315 20.1836 1.9315 21.1815C1.9315 23.4602 1.9315 25.739 1.9315 28.0177C1.92603 28.3826 1.92085 28.7474 1.91553 29.1121C1.91553 29.9718 2.67518 30.6752 3.60386 30.6752C4.02767 30.6752 4.45157 30.6752 4.87524 30.6752V30.6751Z" fill="#F1882D"/>
<path fill-rule="evenodd" clip-rule="evenodd" d="M4.91145 30.6357C7.68764 30.6357 10.4641 30.6357 13.2405 30.6357C14.3144 30.6357 15.1931 29.8219 15.1931 28.8277C15.1931 27.9014 15.1931 26.9749 15.1931 26.0486C15.1931 24.424 15.1931 22.7997 15.1931 21.1751C15.1931 20.5725 15.1931 19.9698 15.1931 19.3672C14.5421 19.3672 13.8912 19.3672 13.2405 19.3672C12.0899 19.3672 10.9388 19.3672 9.78811 19.3672C7.83567 19.3672 5.88301 19.3672 3.93042 19.3672C2.85667 19.3672 1.97798 20.1807 1.97798 21.1751C1.97798 23.4458 1.97798 25.7168 1.97798 27.9875C1.97251 28.3509 1.96726 28.7144 1.96216 29.0781C1.96216 29.9347 2.71907 30.6357 3.6445 30.6357C4.06699 30.6357 4.4891 30.6357 4.91152 30.6357H4.91145Z" fill="#F18A2E"/>
<path fill-rule="evenodd" clip-rule="evenodd" d="M4.94755 30.5961C7.71392 30.5961 10.4805 30.5961 13.2474 30.5961C14.3173 30.5961 15.1931 29.7853 15.1931 28.7947C15.1931 27.8715 15.1931 26.9482 15.1931 26.0253C15.1931 24.4063 15.1931 22.7875 15.1931 21.1688C15.1931 20.5682 15.1931 19.9678 15.1931 19.3672C14.5443 19.3672 13.8959 19.3672 13.2474 19.3672C12.1003 19.3672 10.9538 19.3672 9.80714 19.3672C7.8612 19.3672 5.91542 19.3672 3.96971 19.3672C2.90003 19.3672 2.024 20.1779 2.024 21.1688C2.024 23.4317 2.024 25.6944 2.024 27.9574C2.01875 28.3195 2.01387 28.6818 2.00854 29.044C2.00854 29.8977 2.76272 30.5961 3.68482 30.5961C4.10568 30.5961 4.52655 30.5961 4.94755 30.5961Z" fill="#F18D33"/>
<path fill-rule="evenodd" clip-rule="evenodd" d="M4.9833 30.5566C7.74019 30.5566 10.4972 30.5566 13.254 30.5566C14.3203 30.5566 15.193 29.7485 15.193 28.7614C15.193 27.8415 15.193 26.9215 15.193 26.0018C15.193 24.3886 15.193 22.7756 15.193 21.1624C15.193 20.564 15.193 19.9656 15.193 19.3672C14.5465 19.3672 13.9004 19.3672 13.254 19.3672C12.1111 19.3672 10.9685 19.3672 9.82587 19.3672C7.88704 19.3672 5.94806 19.3672 4.00922 19.3672C2.94294 19.3672 2.07017 20.1752 2.07017 21.1624C2.07017 23.4174 2.07017 25.6721 2.07017 27.927C2.06529 28.2879 2.06004 28.649 2.05457 29.01C2.05457 29.8606 2.80638 30.5567 3.72522 30.5567C4.14446 30.5567 4.56384 30.5567 4.98322 30.5567L4.9833 30.5566Z" fill="#F28E35"/>
<path fill-rule="evenodd" clip-rule="evenodd" d="M5.01941 30.5173C7.76654 30.5173 10.5137 30.5173 13.2608 30.5173C14.3234 30.5173 15.1931 29.7119 15.1931 28.7283C15.1931 27.8116 15.1931 26.8951 15.1931 25.9784C15.1931 24.3709 15.1931 22.7636 15.1931 21.1561C15.1931 20.5598 15.1931 19.9637 15.1931 19.3672C14.5488 19.3672 13.905 19.3672 13.2608 19.3672C12.1221 19.3672 10.9833 19.3672 9.84483 19.3672C7.91272 19.3672 5.98099 19.3672 4.04866 19.3672C2.98637 19.3672 2.11692 20.1722 2.11692 21.1561C2.11692 23.403 2.11692 25.6499 2.11692 27.8969C2.1116 28.2565 2.1062 28.6162 2.10095 28.976C2.10095 29.8237 2.85025 30.5173 3.76562 30.5173C4.1836 30.5173 4.60165 30.5173 5.01941 30.5173Z" fill="#F28E37"/>
<path fill-rule="evenodd" clip-rule="evenodd" d="M5.05546 30.4777H13.268C14.3268 30.4777 15.1931 29.6753 15.1931 28.6952V25.9549V21.1497V19.3672H13.268H9.86373H4.08804C3.0296 19.3672 2.16318 20.1694 2.16318 21.1497V27.8666L2.14758 28.9419C2.14758 29.7867 2.89378 30.4777 3.80604 30.4777H5.05539H5.05546Z" fill="#F2913B"/>
<path fill-rule="evenodd" clip-rule="evenodd" d="M13.6895 2.19287H5.4115V10.7963H13.6895V2.19287Z" fill="#92C144"/>
<path fill-rule="evenodd" clip-rule="evenodd" d="M2.57628 1.46582H12.5528V5.23421V7.05067V8.4604H11.0617H9.48922V7.05067H11.0617V5.23421H7.83565V9.70428V9.97896V10.4397V10.4939C7.83565 11.1351 7.31075 11.6599 6.66948 11.6599H5.8801H4.33174H3.45371C2.37834 11.6599 1.49817 10.7799 1.49817 9.70428V7.56935V4.45511V2.49956H2.5762V2.49594V1.46582H2.57628Z" fill="#17AFBF"/>
<path fill-rule="evenodd" clip-rule="evenodd" d="M15.2531 11.6599H18.5815V1.53516H15.2531V11.6599Z" fill="#2B2A29"/>
<path fill-rule="evenodd" clip-rule="evenodd" d="M15.2531 29.4567H18.5815V19.332H15.2531V29.4567Z" fill="#2B2A29"/>
<path fill-rule="evenodd" clip-rule="evenodd" d="M15.8763 9.98341H16.2018V1.9043H15.8763V9.98341Z" fill="#FFED00"/>
<path fill-rule="evenodd" clip-rule="evenodd" d="M15.8763 27.7802H16.2018V19.7012H15.8763V27.7802Z" fill="#FFED00"/>
<path fill-rule="evenodd" clip-rule="evenodd" d="M20.2592 5.21045H25.9798V10.9309H20.2592V5.21045Z" fill="#FBEB16"/>
<path fill-rule="evenodd" clip-rule="evenodd" d="M22.1569 6.97266H24.0819V9.60253H22.1569V6.97266Z" fill="#2B2A29"/>
<path fill-rule="evenodd" clip-rule="evenodd" d="M15.5591 12.0151H19.6585V19.1506H15.5591V12.0151Z" fill="#13A1B0"/>
<path fill-rule="evenodd" clip-rule="evenodd" d="M15.5591 12.0151C16.9135 12.0151 18.2683 12.0151 19.6226 12.0151C19.6226 14.3817 19.6226 16.7481 19.6226 19.1147C18.2683 19.1147 16.9136 19.1147 15.5591 19.1147C15.5591 16.7481 15.5591 14.3817 15.5591 12.0151Z" fill="#11A4B4"/>
<path fill-rule="evenodd" clip-rule="evenodd" d="M15.5591 12.0151C16.9015 12.0151 18.2443 12.0151 19.5867 12.0151C19.5867 14.3696 19.5867 16.7243 19.5867 19.079C18.2443 19.079 16.9015 19.079 15.5591 19.079C15.5591 16.7243 15.5591 14.3697 15.5591 12.0151Z" fill="#18A6B6"/>
<path fill-rule="evenodd" clip-rule="evenodd" d="M15.5591 12.0151C16.8897 12.0151 18.2202 12.0151 19.5508 12.0151C19.5508 14.3578 19.5508 16.7004 19.5508 19.043C18.2202 19.043 16.8897 19.043 15.5591 19.043C15.5591 16.7004 15.5591 14.3578 15.5591 12.0151Z" fill="#15A7B6"/>
<path fill-rule="evenodd" clip-rule="evenodd" d="M15.5591 12.0151C16.8777 12.0151 18.1962 12.0151 19.5146 12.0151C19.5146 14.3458 19.5146 16.6764 19.5146 19.007C18.1962 19.007 16.8776 19.007 15.5591 19.007C15.5591 16.6764 15.5591 14.3458 15.5591 12.0151Z" fill="#15A8B8"/>
<path fill-rule="evenodd" clip-rule="evenodd" d="M15.5591 12.0151C16.8659 12.0151 18.1722 12.0151 19.4787 12.0151C19.4787 14.3338 19.4787 16.6525 19.4787 18.971C18.1722 18.971 16.8659 18.971 15.5591 18.971C15.5591 16.6524 15.5591 14.3337 15.5591 12.0151Z" fill="#15A9B9"/>
<path fill-rule="evenodd" clip-rule="evenodd" d="M15.5591 12.0151C16.854 12.0151 18.1484 12.0151 19.443 12.0151C19.443 14.3217 19.443 16.6285 19.443 18.9351C18.1484 18.9351 16.854 18.9351 15.5591 18.9351C15.5591 16.6285 15.5591 14.3217 15.5591 12.0151Z" fill="#17ADBC"/>
<path fill-rule="evenodd" clip-rule="evenodd" d="M15.5591 12.0151C16.842 12.0151 18.1245 12.0151 19.407 12.0151C19.407 14.3098 19.407 16.6045 19.407 18.8992C18.1245 18.8992 16.842 18.8992 15.5591 18.8992C15.5591 16.6045 15.5591 14.3098 15.5591 12.0151Z" fill="#17AEBE"/>
<path fill-rule="evenodd" clip-rule="evenodd" d="M15.5591 12.0151C16.8299 12.0151 18.1005 12.0151 19.371 12.0151C19.371 14.2979 19.371 16.5805 19.371 18.8632C18.1005 18.8632 16.8299 18.8632 15.5591 18.8632C15.5591 16.5805 15.5591 14.2979 15.5591 12.0151Z" fill="#10B2C1"/>
<path fill-rule="evenodd" clip-rule="evenodd" d="M15.5591 12.0151C16.818 12.0151 18.0764 12.0151 19.3353 12.0151C19.3353 14.2858 19.3353 16.5566 19.3353 18.8275C18.0764 18.8275 16.818 18.8275 15.5591 18.8275C15.5591 16.5566 15.5591 14.2859 15.5591 12.0151Z" fill="#10B2C1"/>
<path fill-rule="evenodd" clip-rule="evenodd" d="M15.5591 12.0151C16.8061 12.0151 18.0524 12.0151 19.2994 12.0151C19.2994 14.2739 19.2994 16.5326 19.2994 18.7915C18.0524 18.7915 16.8061 18.7915 15.5591 18.7915C15.5591 16.5326 15.5591 14.2739 15.5591 12.0151Z" fill="#14B4C2"/>
<path fill-rule="evenodd" clip-rule="evenodd" d="M15.5591 12.0151C16.7939 12.0151 18.0288 12.0151 19.2632 12.0151C19.2632 14.2619 19.2632 16.5086 19.2632 18.7556C18.0288 18.7556 16.7939 18.7556 15.5591 18.7556C15.5591 16.5087 15.5591 14.2619 15.5591 12.0151Z" fill="#10B5C5"/>
<path fill-rule="evenodd" clip-rule="evenodd" d="M15.5591 12.0151C16.7819 12.0151 18.0048 12.0151 19.2273 12.0151C19.2273 14.2499 19.2273 16.4847 19.2273 18.7196C18.0048 18.7196 16.7819 18.7196 15.5591 18.7196C15.5591 16.4847 15.5591 14.2499 15.5591 12.0151Z" fill="#15B6C5"/>
<path fill-rule="evenodd" clip-rule="evenodd" d="M15.5591 12.0151C16.7699 12.0151 17.9808 12.0151 19.1915 12.0151C19.1915 14.2379 19.1915 16.461 19.1915 18.6837C17.9808 18.6837 16.7698 18.6837 15.5591 18.6837C15.5591 16.461 15.5591 14.2379 15.5591 12.0151Z" fill="#15B6C5"/>
<path fill-rule="evenodd" clip-rule="evenodd" d="M15.5591 12.0151C16.7579 12.0151 17.9567 12.0151 19.1557 12.0151C19.1557 14.226 19.1557 16.4369 19.1557 18.6478C17.9567 18.6478 16.7579 18.6478 15.5591 18.6478C15.5591 16.4369 15.5591 14.226 15.5591 12.0151Z" fill="#15B6C5"/>
<path fill-rule="evenodd" clip-rule="evenodd" d="M15.5591 12.0151C16.746 12.0151 17.9328 12.0151 19.1196 12.0151C19.1196 14.2139 19.1196 16.413 19.1196 18.612C17.9328 18.612 16.746 18.612 15.5591 18.612C15.5591 16.413 15.5591 14.2139 15.5591 12.0151Z" fill="#21B7C5"/>
<path fill-rule="evenodd" clip-rule="evenodd" d="M15.5591 12.0151H19.0838V18.576H15.5591V12.0151Z" fill="#27B7C6"/>
<path fill-rule="evenodd" clip-rule="evenodd" d="M19.9407 12.0151H27.8352V19.1506H19.9407V12.0151Z" fill="#D9C807"/>
<path fill-rule="evenodd" clip-rule="evenodd" d="M19.9407 12.0151C22.5461 12.0151 25.1519 12.0151 27.7574 12.0151C27.7574 14.3701 27.7574 16.7252 27.7574 19.0803C25.1519 19.0803 22.5461 19.0803 19.9407 19.0803C19.9407 16.7253 19.9407 14.3702 19.9407 12.0151Z" fill="#DDCB0A"/>
<path fill-rule="evenodd" clip-rule="evenodd" d="M19.9407 12.0151C22.52 12.0151 25.0998 12.0151 27.6792 12.0151C27.6792 14.3467 27.6792 16.6782 27.6792 19.0098C25.0997 19.0098 22.52 19.0098 19.9407 19.0098C19.9407 16.6782 19.9407 14.3467 19.9407 12.0151Z" fill="#E4D20B"/>
<path fill-rule="evenodd" clip-rule="evenodd" d="M19.9407 12.0151C22.4942 12.0151 25.0477 12.0151 27.6014 12.0151C27.6014 14.3231 27.6014 16.6312 27.6014 18.9393C25.0477 18.9393 22.4943 18.9393 19.9407 18.9393C19.9407 16.6312 19.9407 14.3231 19.9407 12.0151Z" fill="#EBD70A"/>
<path fill-rule="evenodd" clip-rule="evenodd" d="M19.9407 12.0151C22.4683 12.0151 24.9959 12.0151 27.5233 12.0151C27.5233 14.2996 27.5233 16.5842 27.5233 18.8687C24.9959 18.8687 22.4682 18.8687 19.9407 18.8687C19.9407 16.5842 19.9407 14.2996 19.9407 12.0151Z" fill="#EFDC0E"/>
<path fill-rule="evenodd" clip-rule="evenodd" d="M19.9407 12.0151C22.4421 12.0151 24.9436 12.0151 27.4454 12.0151C27.4454 14.276 27.4454 16.5372 27.4454 18.7982C24.9435 18.7982 22.4421 18.7982 19.9407 18.7982C19.9407 16.5372 19.9407 14.276 19.9407 12.0151Z" fill="#F3E10F"/>
<path fill-rule="evenodd" clip-rule="evenodd" d="M19.9407 12.0151H27.3676V18.7278H19.9407V12.0151Z" fill="#F9E615"/>
<path fill-rule="evenodd" clip-rule="evenodd" d="M13.949 12.0151H7.83798H6.53406V13.3193V16.7135V17.8466C6.53406 18.5639 7.12084 19.1507 7.83798 19.1507H13.0002H13.949H15.2531V17.8466V16.7135V15.0163V13.3193V12.0151H13.949Z" fill="#DDCB0A"/>
<path fill-rule="evenodd" clip-rule="evenodd" d="M13.9259 12.0151C11.8952 12.0151 9.86472 12.0151 7.8342 12.0151C7.40077 12.0151 6.96727 12.0151 6.53406 12.0151C6.53406 12.4483 6.53406 12.8817 6.53406 13.3151C6.53406 14.4431 6.53406 15.5709 6.53406 16.6987C6.53406 17.0752 6.53406 17.4518 6.53406 17.8283C6.53406 18.5435 7.11906 19.1285 7.8342 19.1285C9.54952 19.1285 11.2647 19.1285 12.9799 19.1285C13.2954 19.1285 13.6106 19.1285 13.926 19.1285C14.3592 19.1285 14.7926 19.1285 15.2259 19.1285C15.2259 18.6951 15.2259 18.2617 15.2259 17.8283C15.2259 17.4518 15.2259 17.0752 15.2259 16.6987C15.2259 16.1348 15.2259 15.5709 15.2259 15.007C15.2259 14.4431 15.2259 13.8789 15.2259 13.3151C15.2259 12.8817 15.2259 12.4483 15.2259 12.0151C14.7926 12.0151 14.3592 12.0151 13.926 12.0151H13.9259Z" fill="#DFCD0F"/>
<path fill-rule="evenodd" clip-rule="evenodd" d="M13.9028 12.0151C11.8783 12.0151 9.85437 12.0151 7.82999 12.0151C7.39782 12.0151 6.96601 12.0151 6.53406 12.0151C6.53406 12.4471 6.53406 12.879 6.53406 13.3111C6.53406 14.4354 6.53406 15.5599 6.53406 16.6842C6.53406 17.0595 6.53406 17.435 6.53406 17.8103C6.53406 18.5233 7.11736 19.1064 7.82999 19.1064C9.53983 19.1064 11.25 19.1064 12.9598 19.1064C13.2741 19.1064 13.5886 19.1064 13.9028 19.1064C14.3346 19.1064 14.7669 19.1064 15.1986 19.1064C15.1986 18.6743 15.1986 18.2424 15.1986 17.8103C15.1986 17.435 15.1986 17.0595 15.1986 16.6842C15.1986 16.1219 15.1986 15.5599 15.1986 14.9975C15.1986 14.4355 15.1986 13.8732 15.1986 13.3111C15.1986 12.8789 15.1986 12.4471 15.1986 12.0151C14.7669 12.0151 14.3346 12.0151 13.9028 12.0151Z" fill="#E2CF0C"/>
<path fill-rule="evenodd" clip-rule="evenodd" d="M13.8798 12.0151C11.8618 12.0151 9.84387 12.0151 7.82585 12.0151C7.39538 12.0151 6.96468 12.0151 6.53406 12.0151C6.53406 12.4456 6.53406 12.8762 6.53406 13.3069C6.53406 14.4278 6.53406 15.5488 6.53406 16.6695C6.53406 17.0437 6.53406 17.4179 6.53406 17.7921C6.53406 18.5026 7.11537 19.0842 7.82585 19.0842C9.53067 19.0842 11.2351 19.0842 12.9399 19.0842C13.2531 19.0842 13.5663 19.0842 13.8798 19.0842C14.3102 19.0842 14.7409 19.0842 15.1716 19.0842C15.1716 18.6533 15.1716 18.2227 15.1716 17.7921C15.1716 17.4179 15.1716 17.0437 15.1716 16.6695C15.1716 16.1092 15.1716 15.5488 15.1716 14.9883C15.1716 14.4278 15.1716 13.8673 15.1716 13.3069C15.1716 12.8762 15.1716 12.4456 15.1716 12.0151C14.7409 12.0151 14.3102 12.0151 13.8798 12.0151Z" fill="#E4D20B"/>
<path fill-rule="evenodd" clip-rule="evenodd" d="M13.8568 12.0151C11.8451 12.0151 9.83352 12.0151 7.822 12.0151C7.39264 12.0151 6.96342 12.0151 6.53406 12.0151C6.53406 12.4444 6.53406 12.8737 6.53406 13.3029C6.53406 14.4202 6.53406 15.5377 6.53406 16.655C6.53406 17.0279 6.53406 17.401 6.53406 17.7741C6.53406 18.4824 7.11337 19.0618 7.822 19.0618C9.52105 19.0618 11.2205 19.0618 12.9195 19.0618C13.232 19.0618 13.5441 19.0618 13.8568 19.0618C14.286 19.0618 14.7154 19.0618 15.1446 19.0618C15.1446 18.6327 15.1446 18.2033 15.1446 17.7741C15.1446 17.401 15.1446 17.0278 15.1446 16.655C15.1446 16.0964 15.1446 15.5377 15.1446 14.9791C15.1446 14.4202 15.1446 13.8616 15.1446 13.3029C15.1446 12.8737 15.1446 12.4444 15.1446 12.0151C14.7154 12.0151 14.286 12.0151 13.8568 12.0151Z" fill="#E4D20B"/>
<path fill-rule="evenodd" clip-rule="evenodd" d="M13.8335 12.0151C11.8283 12.0151 9.82295 12.0151 7.81801 12.0151C7.38968 12.0151 6.9618 12.0151 6.53406 12.0151C6.53406 12.4431 6.53406 12.871 6.53406 13.2989C6.53406 14.4128 6.53406 15.5266 6.53406 16.6403C6.53406 17.012 6.53406 17.3841 6.53406 17.7559C6.53406 18.462 7.11174 19.0397 7.81801 19.0397C9.51196 19.0397 11.2055 19.0397 12.8994 19.0397C13.211 19.0397 13.5222 19.0397 13.8335 19.0397C14.2617 19.0397 14.6893 19.0397 15.1173 19.0397C15.1173 18.6118 15.1173 18.1838 15.1173 17.7559C15.1173 17.3841 15.1173 17.0121 15.1173 16.6403C15.1173 16.0834 15.1173 15.5266 15.1173 14.9696C15.1173 14.4128 15.1173 13.8557 15.1173 13.2989C15.1173 12.871 15.1173 12.4431 15.1173 12.0151C14.6893 12.0151 14.2617 12.0151 13.8335 12.0151Z" fill="#E6D40D"/>
<path fill-rule="evenodd" clip-rule="evenodd" d="M13.8105 12.0151C11.8115 12.0151 9.81282 12.0151 7.81365 12.0151C7.38732 12.0151 6.96054 12.0151 6.53406 12.0151C6.53406 12.4416 6.53406 12.8682 6.53406 13.2948C6.53406 14.4051 6.53406 15.5153 6.53406 16.6258C6.53406 16.9963 6.53406 17.367 6.53406 17.7378C6.53406 18.4417 7.10975 19.0175 7.81365 19.0175C9.50235 19.0175 11.191 19.0175 12.8794 19.0175C13.1897 19.0175 13.5 19.0175 13.8105 19.0175C14.2369 19.0175 14.6637 19.0175 15.0901 19.0175C15.0901 18.5909 15.0901 18.1643 15.0901 17.7378C15.0901 17.3671 15.0901 16.9963 15.0901 16.6258C15.0901 16.0706 15.0901 15.5153 15.0901 14.9604C15.0901 14.4051 15.0901 13.8499 15.0901 13.2948C15.0901 12.8683 15.0901 12.4417 15.0901 12.0151C14.6637 12.0151 14.237 12.0151 13.8105 12.0151Z" fill="#EBD70A"/>
<path fill-rule="evenodd" clip-rule="evenodd" d="M13.7874 12.0151C11.7948 12.0151 9.80232 12.0151 7.80988 12.0151C7.38451 12.0151 6.95928 12.0151 6.53406 12.0151C6.53406 12.4403 6.53406 12.8656 6.53406 13.2907C6.53406 14.3975 6.53406 15.5043 6.53406 16.6111C6.53406 16.9805 6.53406 17.3501 6.53406 17.7196C6.53406 18.4214 7.10797 18.9953 7.80988 18.9953C9.49288 18.9953 11.1763 18.9953 12.8593 18.9953C13.1687 18.9953 13.478 18.9953 13.7874 18.9953C14.2126 18.9953 14.6379 18.9953 15.0632 18.9953C15.0632 18.5701 15.0632 18.1448 15.0632 17.7196C15.0632 17.3501 15.0632 16.9805 15.0632 16.6111C15.0632 16.0577 15.0632 15.5043 15.0632 14.9509C15.0632 14.3975 15.0632 13.8441 15.0632 13.2907C15.0632 12.8656 15.0632 12.4403 15.0632 12.0151C14.6379 12.0151 14.2126 12.0151 13.7874 12.0151Z" fill="#ECD809"/>
<path fill-rule="evenodd" clip-rule="evenodd" d="M13.7644 12.0147C11.7781 12.0147 9.79211 12.0147 7.80589 12.0147C7.38192 12.0147 6.95795 12.0147 6.53406 12.0147C6.53406 12.4385 6.53406 12.8624 6.53406 13.2863C6.53406 14.3894 6.53406 15.4927 6.53406 16.5961C6.53406 16.9644 6.53406 17.3327 6.53406 17.701C6.53406 18.4004 7.10627 18.9726 7.80589 18.9726C9.48364 18.9726 11.1613 18.9726 12.8391 18.9726C13.1476 18.9726 13.456 18.9726 13.7643 18.9726C14.1882 18.9726 14.6122 18.9726 15.0361 18.9726C15.0361 18.5487 15.0361 18.125 15.0361 17.701C15.0361 17.3327 15.0361 16.9644 15.0361 16.5961C15.0361 16.0443 15.0361 15.4927 15.0361 14.9412C15.0361 14.3894 15.0361 13.8378 15.0361 13.2863C15.0361 12.8624 15.0361 12.4384 15.0361 12.0146C14.6122 12.0146 14.1882 12.0146 13.7643 12.0146L13.7644 12.0147Z" fill="#EEDA09"/>
<path fill-rule="evenodd" clip-rule="evenodd" d="M13.7412 12.0151C11.7611 12.0151 9.78127 12.0151 7.8014 12.0151C7.37891 12.0151 6.95665 12.0151 6.53394 12.0151C6.53394 12.4376 6.53394 12.8601 6.53394 13.2826C6.53394 14.3824 6.53394 15.4821 6.53394 16.5818C6.53394 16.949 6.53394 17.3162 6.53394 17.6834C6.53394 18.3806 7.10423 18.9509 7.8014 18.9509C9.47383 18.9509 11.1466 18.9509 12.8191 18.9509C13.1265 18.9509 13.4338 18.9509 13.7412 18.9509C14.1639 18.9509 14.5861 18.9509 15.0087 18.9509C15.0087 18.5284 15.0087 18.1058 15.0087 17.6834C15.0087 17.3162 15.0087 16.949 15.0087 16.5818C15.0087 16.0321 15.0087 15.4821 15.0087 14.9323C15.0087 14.3825 15.0087 13.8326 15.0087 13.2826C15.0087 12.8601 15.0087 12.4376 15.0087 12.0151C14.5862 12.0151 14.1639 12.0151 13.7412 12.0151Z" fill="#EFDC0E"/>
<path fill-rule="evenodd" clip-rule="evenodd" d="M13.7182 12.0151C11.7445 12.0151 9.77119 12.0151 7.79753 12.0151C7.37645 12.0151 6.95507 12.0151 6.53406 12.0151C6.53406 12.4361 6.53406 12.8574 6.53406 13.2786C6.53406 14.3748 6.53406 15.4711 6.53406 16.5673C6.53406 16.9333 6.53406 17.2991 6.53406 17.6652C6.53406 18.3602 7.1025 18.9288 7.79753 18.9288C9.46479 18.9288 11.1317 18.9288 12.7989 18.9288C13.1055 18.9288 13.412 18.9288 13.7182 18.9288C14.1392 18.9288 14.5606 18.9288 14.9817 18.9288C14.9817 18.5076 14.9817 18.0864 14.9817 17.6652C14.9817 17.2992 14.9817 16.9334 14.9817 16.5673C14.9817 16.0192 14.9817 15.4711 14.9817 14.9229C14.9817 14.3748 14.9817 13.8267 14.9817 13.2786C14.9817 12.8574 14.9817 12.4361 14.9817 12.0151C14.5606 12.0151 14.1392 12.0151 13.7182 12.0151Z" fill="#F1DE0E"/>
<path fill-rule="evenodd" clip-rule="evenodd" d="M13.6951 12.0151C11.7278 12.0151 9.76069 12.0151 7.79369 12.0151C7.37356 12.0151 6.95381 12.0151 6.53406 12.0151C6.53406 12.4349 6.53406 12.8547 6.53406 13.2746C6.53406 14.3672 6.53406 15.46 6.53406 16.5526C6.53406 16.9175 6.53406 17.2823 6.53406 17.647C6.53406 18.3398 7.10088 18.9065 7.79369 18.9065C9.45525 18.9065 11.1173 18.9065 12.7787 18.9065C13.0843 18.9065 13.3896 18.9065 13.6951 18.9065C14.1149 18.9065 14.5347 18.9065 14.9546 18.9065C14.9546 18.4867 14.9546 18.0669 14.9546 17.647C14.9546 17.2823 14.9546 16.9175 14.9546 16.5526C14.9546 16.0063 14.9546 15.46 14.9546 14.9136C14.9546 14.3671 14.9546 13.8209 14.9546 13.2746C14.9546 12.8546 14.9546 12.4349 14.9546 12.0151C14.5347 12.0151 14.1149 12.0151 13.6951 12.0151Z" fill="#F1DF11"/>
<path fill-rule="evenodd" clip-rule="evenodd" d="M13.6721 12.0147C11.7113 12.0147 9.75049 12.0147 7.78947 12.0147C7.37098 12.0147 6.95248 12.0147 6.53406 12.0147C6.53406 12.4332 6.53406 12.8517 6.53406 13.2701C6.53406 14.3594 6.53406 15.4485 6.53406 16.5377C6.53406 16.9014 6.53406 17.2648 6.53406 17.6285C6.53406 18.3189 7.09888 18.884 7.78947 18.884C9.44601 18.884 11.1022 18.884 12.7589 18.884C13.0631 18.884 13.3674 18.884 13.6721 18.884C14.0906 18.884 14.5091 18.884 14.9274 18.884C14.9274 18.4654 14.9274 18.047 14.9274 17.6285C14.9274 17.2648 14.9274 16.9014 14.9274 16.5377C14.9274 15.993 14.9274 15.4485 14.9274 14.9038C14.9274 14.3593 14.9274 13.8147 14.9274 13.27C14.9274 12.8516 14.9274 12.4331 14.9274 12.0146C14.5091 12.0146 14.0906 12.0146 13.6721 12.0146V12.0147Z" fill="#F3E10F"/>
<path fill-rule="evenodd" clip-rule="evenodd" d="M13.6491 12.0151C11.6946 12.0151 9.73977 12.0151 7.78533 12.0151C7.36809 12.0151 6.9513 12.0151 6.53406 12.0151C6.53406 12.4322 6.53406 12.8494 6.53406 13.2664C6.53406 14.3521 6.53406 15.4379 6.53406 16.5234C6.53406 16.886 6.53406 17.2483 6.53406 17.6107C6.53406 18.299 7.09703 18.8622 7.78533 18.8622C9.43647 18.8622 11.0877 18.8622 12.7387 18.8622C13.0421 18.8622 13.3456 18.8622 13.6491 18.8622C14.0663 18.8622 14.4831 18.8622 14.9004 18.8622C14.9004 18.445 14.9004 18.0279 14.9004 17.6107C14.9004 17.2483 14.9004 16.886 14.9004 16.5234C14.9004 15.9807 14.9004 15.4379 14.9004 14.895C14.9004 14.3522 14.9004 13.8093 14.9004 13.2664C14.9004 12.8494 14.9004 12.4322 14.9004 12.0151C14.4831 12.0151 14.0663 12.0151 13.6491 12.0151Z" fill="#F5E30E"/>
<path fill-rule="evenodd" clip-rule="evenodd" d="M13.626 12.0151C11.6777 12.0151 9.72964 12.0151 7.78156 12.0151C7.36558 12.0151 6.94967 12.0151 6.53406 12.0151C6.53406 12.4309 6.53406 12.8467 6.53406 13.2624C6.53406 14.3445 6.53406 15.4268 6.53406 16.5088C6.53406 16.8701 6.53406 17.2314 6.53406 17.5925C6.53406 18.2786 7.0954 18.84 7.78156 18.84C9.42693 18.84 11.0727 18.84 12.7184 18.84C13.021 18.84 13.3234 18.84 13.626 18.84C14.0415 18.84 14.4575 18.84 14.8733 18.84C14.8733 18.424 14.8733 18.0083 14.8733 17.5925C14.8733 17.2314 14.8733 16.8701 14.8733 16.5088C14.8733 15.9678 14.8733 15.4268 14.8733 14.8855C14.8733 14.3445 14.8733 13.8034 14.8733 13.2624C14.8733 12.8467 14.8733 12.4309 14.8733 12.0151C14.4575 12.0151 14.0415 12.0151 13.626 12.0151Z" fill="#F7E40D"/>
<path fill-rule="evenodd" clip-rule="evenodd" d="M13.6029 12.0151C11.6609 12.0151 9.71921 12.0151 7.77735 12.0151C7.36306 12.0151 6.94834 12.0151 6.53406 12.0151C6.53406 12.4294 6.53406 12.8439 6.53406 13.2583C6.53406 14.3369 6.53406 15.4155 6.53406 16.4942C6.53406 16.8543 6.53406 17.2143 6.53406 17.5744C6.53406 18.2583 7.09348 18.8177 7.77735 18.8177C9.41769 18.8177 11.0581 18.8177 12.6984 18.8177C12.9998 18.8177 13.3013 18.8177 13.6029 18.8177C14.0171 18.8177 14.4315 18.8177 14.8462 18.8177C14.8462 18.4034 14.8462 17.9889 14.8462 17.5744C14.8462 17.2143 14.8462 16.8544 14.8462 16.4942C14.8462 15.9549 14.8462 15.4155 14.8462 14.8763C14.8462 14.3369 14.8462 13.7977 14.8462 13.2583C14.8462 12.844 14.8462 12.4295 14.8462 12.0151C14.4314 12.0151 14.0171 12.0151 13.6029 12.0151Z" fill="#F7E415"/>
<path fill-rule="evenodd" clip-rule="evenodd" d="M13.5799 12.0151H7.7732H6.53406V13.2543V16.4797V17.5564C6.53406 18.2379 7.09178 18.7956 7.7732 18.7956H12.6785H13.5799H14.819V17.5564V16.4797V14.8669V13.2543V12.0151H13.5799Z" fill="#F9E615"/>
<path fill-rule="evenodd" clip-rule="evenodd" d="M20.0111 22.4499H20.6402V26.5275H22.3102V22.4499H24.2405V25.0525H26.0622V22.4499V20.7363H20.0111V22.4499Z" fill="#88D1F5"/>
<path fill-rule="evenodd" clip-rule="evenodd" d="M24.2404 25.0528H22.3101V22.4502H24.2404V25.0528Z" fill="#2D2347"/>
<path fill-rule="evenodd" clip-rule="evenodd" d="M7.84033 24.3992H11.1372V27.4789H12.612V24.3992V22.8809H11.1372H7.84033V24.3992Z" fill="#DFE9F1"/>
<path fill-rule="evenodd" clip-rule="evenodd" d="M9.27185 26.7417H11.1372V24.3994H9.27185V26.7417Z" fill="#414B98"/>
<path fill-rule="evenodd" clip-rule="evenodd" d="M7.62354 20.6685H13.8917V26.9366H15.1931V20.6685V19.3672H13.8917H7.62354V20.6685Z" fill="#FFED00"/>
</g>
<defs>
<clipPath id="clip0_1122_2768">
<rect width="32" height="31.9092" fill="white"/>
</clipPath>
</defs>
</svg>
